<svg version="1.2" xmlns="http://www.w3.org/2000/svg" viewBox="0 0 270 135" width="180" height="90"><style>.a{fill:#0ff}.b{fill:#0ff;stroke:#000;stroke-miterlimit:100}.c{fill:#f8f8f8}.d{fill:#f6f6f6}</style><path fill-rule="evenodd" class="a" d="m64.8 48.1q-0.2 2-0.4 4.1-0.1 0.8-0.3 1.7-0.2 0.9-0.5 1.7-0.2 0.9-0.4 1.7-0.3 0.9-0.6 1.7c-3.5 8.8-9.6 14.6-18.9 17.5q-0.9 0.3-1.8 0.5-0.9 0.2-1.8 0.4-1 0.2-1.9 0.4-0.9 0.1-1.8 0.3c-5.3 1-11.8 0.5-17.7 0.5h-5.2l-0.1-0.2q-0.2 0.1-0.5 0.1-0.2 0.1-0.5 0.1-0.2 0.1-0.5 0.1-0.2 0-0.5 0c-1 0-2-0.2-2.9-0.7-0.9-0.4-1.7-1.1-2.3-1.9-0.6-0.9-1-1.8-1.1-2.8-0.2-1-0.1-2.1 0.3-3l-0.4-0.2v-49.2l0.3-0.3c-0.3-1-0.4-2-0.2-3 0.1-1 0.5-2 1.1-2.8 0.6-0.8 1.4-1.4 2.3-1.9 0.9-0.4 1.9-0.7 2.9-0.7q0.3 0 0.5 0.1 0.2 0 0.4 0 0.3 0 0.5 0.1 0.2 0.1 0.4 0.1l0.3-0.3h10.9c5.1 0 10.1-0.1 14.4 0.9 8.6 1.9 15.2 5.2 19.7 11.2q0.5 0.6 1 1.2 0.4 0.6 0.8 1.3 0.4 0.6 0.8 1.3 0.4 0.6 0.7 1.3 0.5 1.4 1 2.7 0.4 1.4 0.8 2.8 0.4 1.4 0.7 2.8 0.2 1.4 0.4 2.8l0.2 3.8q0.1 0.5 0.1 1 0 0.4 0 0.9 0 0.5-0.1 1 0 0.4-0.1 0.9zm-32.2-25.9c-10.3 0-8.5 11.2-8.5 11.2q0.1 0 0.1 0c-0.5 1.1-0.7 2.8 1.6 5.1 1.3 3.7 3.7 6.6 7.1 6.6 3.3 0 5.7-2.8 7-6.5 2.7-2.7 2-4.7 1.4-5.7 1.5-6.9-2.9-10.7-8.7-10.7zm18.7 31.4q-0.5-1.3-1.2-2.4-0.7-1.2-1.6-2.2-0.9-1-2-1.8-1.1-0.9-2.3-1.5l-5.1-1.9-0.7 1.6 1.4 0.6-5.2 17.3-0.7-11.6h-2.1l-0.6 11.4-5.2-17.2 1.4-0.5-0.7-1.6-5.1 1.8-0.1 0.1q-1.2 0.6-2.3 1.5-1 0.8-2 1.8-0.9 1-1.6 2.2-0.7 1.1-1.2 2.4-0.2 0.5-0.3 1-0.1 0.4-0.3 0.9-0.1 0.5-0.1 1-0.1 0.5-0.2 1 1.8 2.1 4 3.8 2.2 1.7 4.7 2.9 2.5 1.2 5.2 1.8 2.7 0.6 5.4 0.6h0.1q0.6 0 1.2-0.1h0.1q2.6-0.1 5.1-0.8 2.5-0.6 4.9-1.8 2.3-1.2 4.3-2.8 2.1-1.6 3.7-3.6 0-0.5-0.1-1-0.1-0.5-0.2-1-0.1-0.5-0.3-0.9-0.1-0.5-0.3-1zm-20.5-4.1l1 1.4h2.2l0.9-1.4c0-0.1-0.6-1.6-0.6-1.6 0 0-2.8 0-2.9 0 0-0.1-0.6 1.5-0.6 1.6zm2.1-6.2c-3.6 0-5.9-4.9-6.3-9.9 1 0 3.5-3.2 3.5-3.2l-0.8 2.8c3.7-1.2 4.2-1.8 4.8-2.2q0.2-0.1 0.4-0.3 0.2-0.1 0.4-0.3 0.1-0.2 0.3-0.3 0.2-0.2 0.4-0.4 0.1 0.2 0.1 0.3 0.1 0.1 0.2 0.2 0.1 0.1 0.2 0.2 0.1 0.2 0.2 0.3c0.3 0.2 0.7-2.6 0.7-2.6q0.1 0.3 0.3 0.5 0.1 0.3 0.3 0.6 0.1 0.3 0.3 0.6 0.1 0.3 0.2 0.6 0.1 0.3 0.2 0.6 0.1 0.3 0.3 0.5 0.1 0.3 0.3 0.6 0.1 0.2 0.3 0.4c-0.1 5.4-2.5 11-6.3 11z"/><path class="b" d="m30 90c-13.3 0-24-2.5-24-5.5 0-3 10.7-5.5 24-5.5 13.3 0 24 2.5 24 5.5 0 3-10.7 5.5-24 5.5z"/><path fill-rule="evenodd" class="c" d="m77.5 21.5v25.2h8.2v1.3h-18.4v-26.5zm20.6 0v26.5h-10.2v-26.6h9.6v0.1zm20.3 16.6c0 7.6-4.8 9.9-8.8 9.9q-0.2 0-0.4 0-0.2 0-0.3 0c-4.5 0-8.6-1.1-8.6-7.9h1.6c0 5.4 3.3 6.5 6.3 6.6v-25.2h10.2zm2.5 9.9h-1.7l8.1-26.5h10.3l8.1 26.5h-11l-6.9-22.4zm41.3-26.5c5.7 0 10.5 2.4 10.5 13.3 0 10.9-4.8 13.2-10.5 13.2h-14.1v-26.5zm0.2 25.2v-23.9h-0.6v23.9zm-4.1 0v-23.9h-0.6v23.9zm27.8-25.2v26.5h-10.2v-26.5zm25.2 19.2c0 6-3.9 7.6-9.6 7.6h-5c-4.3 0-7.6-1.1-7.6-8.3h1.6c0 6 2.7 7 6.2 7 2.2 0 3.2-1.3 3.2-3.6 0-5.8-11.1-5-11.1-14.6 0-6 3.9-7.7 9.6-7.7h5c3.7 0 6.9 1.2 6.9 8.3h-1.6c0-5.8-2.8-6.8-5.6-6.9-2.2 0.1-3.1 1.4-3.1 3.6 0 5.8 11.1 5 11.1 14.6zm24.1 0c0 6-3.8 7.6-9.6 7.6h-4.9c-4.3 0-7.6-1.1-7.6-8.3h1.6c0 6 2.7 7 6.2 7 2.2 0 3.1-1.3 3.1-3.6 0-5.8-11-5-11-14.6 0-6 3.8-7.7 9.6-7.7h5c3.7 0 6.9 1.2 6.9 8.3h-1.6c0-5.8-2.8-6.8-5.6-6.9-2.2 0.1-3.1 1.4-3.1 3.6 0 5.8 11 5 11 14.6z"/><path fill-rule="evenodd" class="d" d="m80.6 80h-3.9l-8.8-20.1v20.1h-1.6v-26.5h10.7l5.7 13.3 3.8-13.3h10.2v26.5h-10.2v-20.8zm20.6-26.6h18.5v1.4h-0.7v0.1h-8.2v10.5h6.7v1.3h-0.6v0.1h-6.1v11.8h9.4v1.4h-19.6v-26.5h0.6zm31.6 15v11.6h-10.3v-26.5h10.3v12.5l10.8-12.5h2.3l-5.4 6.2v0.3l9 20h-11.9l-4.8-11.6zm41.5-1.6c0 11.3-4.8 13.6-10.6 13.6h-3.8q-1.5 0-3-0.2c-4.6-0.7-8.2-3.8-8.2-13.5 0-11.2 4.8-13.6 10.6-13.6h3.8q1.5 0 2.8 0.2c4.8 0.7 8.4 3.7 8.4 13.5zm-15.5 12.3h4.8v-0.1h0.6v-24.5h-4.8v24.5h4.2v-24.5h-4.8zm29.3-25.6l8.8 19.9v-19.9h1.6v26.5h-10.6l-8.8-20v20h-1.6v-26.5zm24.9 0l8.8 19.9v-19.9h1.6v26.5h-10.6l-8.8-20v20h-1.6v-26.5zm33.4 0v1.3h-8.8v10.6h6.7v1.3h-6.7v12h9.3v1.3h-19.6v-26.5zm13.5-0.1l8.9 20.2v-20.2h1.6v26.6h-10.6l-8.9-20.2v20.2h-1.5v-26.6z"/></svg>