<svg version="1.2" xmlns="http://www.w3.org/2000/svg" viewBox="0 0 270 135" width="180" height="90"><style>.a{fill:#08f7b1}.b{fill:#fff;stroke:#000;stroke-miterlimit:100}.c{fill:#ff0}</style><path fill-rule="evenodd" class="a" d="m414.8 58.1q-0.2 2-0.4 4.1-0.1 0.8-0.3 1.7-0.2 0.9-0.5 1.7-0.2 0.9-0.4 1.7-0.3 0.9-0.6 1.7c-3.5 8.8-9.6 14.6-18.9 17.5q-0.9 0.3-1.8 0.5-0.9 0.2-1.8 0.4-1 0.2-1.9 0.4-0.9 0.1-1.8 0.3c-5.3 1-11.8 0.5-17.7 0.5h-5.2l-0.1-0.2q-0.2 0.1-0.5 0.1-0.2 0.1-0.5 0.1-0.2 0.1-0.5 0.1-0.2 0-0.5 0c-1 0-2-0.2-2.9-0.7-0.9-0.4-1.7-1.1-2.3-1.9-0.6-0.9-1-1.8-1.1-2.8-0.2-1-0.1-2.1 0.3-3l-0.4-0.2v-49.2l0.3-0.3c-0.3-1-0.4-2-0.2-3 0.1-1 0.5-2 1.1-2.8 0.6-0.8 1.4-1.4 2.3-1.9 0.9-0.4 1.9-0.7 2.9-0.7q0.3 0 0.5 0.1 0.2 0 0.4 0 0.3 0 0.5 0.1 0.2 0.1 0.4 0.1l0.3-0.3h10.9c5.1 0 10.1-0.1 14.4 0.9 8.6 1.9 15.2 5.2 19.7 11.2q0.5 0.6 1 1.2 0.4 0.6 0.8 1.3 0.4 0.6 0.8 1.3 0.4 0.6 0.7 1.3 0.5 1.4 1 2.7 0.4 1.4 0.8 2.8 0.4 1.4 0.7 2.8 0.2 1.4 0.4 2.8l0.2 3.8q0.1 0.5 0.1 1 0 0.4 0 0.9 0 0.5-0.1 1 0 0.4-0.1 0.9zm-32.2-25.9c-10.3 0-8.5 11.2-8.5 11.2q0 0 0 0 0 0 0 0 0 0 0 0 0.1 0 0.1 0c-0.5 1.1-0.7 2.8 1.6 5.1 1.3 3.7 3.7 6.6 7.1 6.6 3.3 0 5.7-2.8 7-6.5 2.7-2.7 2-4.7 1.4-5.7 1.5-6.9-2.9-10.7-8.7-10.7zm18.7 31.4q-0.5-1.3-1.2-2.4-0.7-1.2-1.6-2.2-0.9-1-2-1.8-1.1-0.9-2.3-1.5l-5.1-1.9-0.7 1.6 1.4 0.6-5.2 17.3-0.7-11.6h-2.1l-0.6 11.4-5.2-17.2 1.4-0.5-0.7-1.6-5.1 1.8-0.1 0.1q-1.2 0.6-2.3 1.5-1 0.8-2 1.8-0.9 1-1.6 2.2-0.7 1.1-1.2 2.4-0.2 0.5-0.3 1-0.1 0.4-0.3 0.9-0.1 0.5-0.1 1-0.1 0.5-0.2 1 1.8 2.1 4 3.8 2.2 1.7 4.7 2.9 2.5 1.2 5.2 1.8 2.7 0.6 5.4 0.6h0.1q0.6 0 1.2-0.1h0.1q2.6-0.1 5.1-0.8 2.5-0.6 4.9-1.8 2.3-1.2 4.3-2.8 2.1-1.6 3.7-3.6 0-0.5-0.1-1-0.1-0.5-0.2-1-0.1-0.5-0.3-0.9-0.1-0.5-0.3-1zm-20.5-4.1l1 1.4h2.2l0.9-1.4c0-0.1-0.6-1.6-0.6-1.6 0 0-2.8 0-2.9 0 0-0.1-0.6 1.5-0.6 1.6zm2.1-6.2c-3.6 0-5.9-4.9-6.3-9.9 1 0 3.5-3.2 3.5-3.2l-0.8 2.8c3.7-1.2 4.2-1.8 4.8-2.2q0.2-0.1 0.4-0.3 0.2-0.1 0.4-0.3 0.1-0.2 0.3-0.3 0.2-0.2 0.4-0.4 0.1 0.2 0.1 0.3 0.1 0.1 0.2 0.2 0.1 0.1 0.2 0.2 0.1 0.2 0.2 0.3c0.3 0.2 0.7-2.6 0.7-2.6q0.1 0.3 0.3 0.5 0.1 0.3 0.3 0.6 0.1 0.3 0.3 0.6 0.1 0.3 0.2 0.6 0.1 0.3 0.2 0.6 0.1 0.3 0.3 0.5 0.1 0.3 0.3 0.6 0.1 0.2 0.3 0.4c-0.1 5.4-2.5 11-6.3 11z"/><path class="b" d="m140 91c-13.3 0-24-2.5-24-5.5 0-3 10.7-5.5 24-5.5 13.3 0 24 2.5 24 5.5 0 3-10.7 5.5-24 5.5z"/><path class="c" d="m62.9 42h17.8v-1.3h-8.2v-25.2h-9.6zm-0.6 0h17.8v-1.3h-8.2v-25.2h-9.6zm21.2 0h9.6v-26.5h-9.6zm-0.6 0h9.6v-26.6h-9.6zm30.5-26.5h-9.6v25.2c-3.1 0-6.9-0.8-6.9-6.6h-1c0 6.8 4.1 7.9 8.7 7.9 4 0 8.8-2.3 8.8-9.9zm-0.6 0h-9.6v25.2c-3.1 0-7-0.8-7-6.6h-0.9c0 6.8 4.1 7.9 8.6 7.9 4.1 0 8.9-2.3 8.9-9.9zm10.3 3l7.3 23.5h10.3l-8.1-26.5h-9.7l-8.1 26.5h1.1zm-0.7 0l7.3 23.5h10.3l-8-26.5h-9.7l-8.1 26.5h1zm21.3 23.5h13.5c5.7 0 10.5-2.3 10.5-13.2 0-10.9-4.8-13.3-10.5-13.3h-13.5zm13.7-25.2v23.9h-4.1v-23.9zm-14.3 25.2h13.5c5.7 0 10.5-2.3 10.5-13.2 0-11-4.8-13.3-10.5-13.3h-13.5zm13.7-25.2v23.9h-4.1v-23.9zm14.7 25.2h13.5c5.7 0 10.5-2.3 10.5-13.2 0-11-4.8-13.3-10.5-13.3h-13.5zm13.7-25.2v23.9h-4.1v-23.9zm-14.3 25.2h13.5c5.7 0 10.5-2.3 10.5-13.3 0-10.9-4.8-13.2-10.5-13.2h-13.5zm13.7-25.2v23.9h-4.1v-23.9zm14.7 25.2h9.6v-26.5h-9.6zm-0.6 0h9.6v-26.5h-9.6zm24.3-21.9c0-2.3 1-3.7 3.4-3.7 3 0 6 0.9 6 7h1c0-7.1-3.3-8.3-7-8.3h-4.3c-5.8 0-9.6 1.7-9.6 7.6 0 9.7 11 8.8 11 14.6 0 2.3-0.9 3.7-3.3 3.7-3.6 0-6.6-0.9-6.6-7h-1c0 7.1 3.2 8.3 7.6 8.3h4.3c5.7 0 9.6-1.7 9.6-7.6 0-9.6-11.1-8.8-11.1-14.6zm-0.6 0c0-2.3 1-3.7 3.4-3.7 3 0 6 0.9 6 7h0.9c0-7.1-3.2-8.3-6.9-8.3h-4.4c-5.7 0-9.6 1.7-9.6 7.6 0 9.7 11.1 8.8 11.1 14.6 0 2.3-1 3.7-3.4 3.7-3.6 0-6.6-0.9-6.6-7h-0.9c0 7.1 3.2 8.3 7.5 8.3h4.3c5.8 0 9.6-1.7 9.6-7.6 0-9.6-11-8.8-11-14.6z"/><path class="c" d="m133.7 54.9l-0.6-1-7.4 8.5v1.3l7.4 8.5 0.6-1-7-8.1zm1.7 1.6l-0.6-1-5.9 6.8v1.3l5.9 6.8 0.6-1-5.5-6.4zm-2.4-1.7l-0.6-1-7.3 8.5v1.3l7.3 8.5 0.6-1-6.9-8.2zm1.7 1.7l-0.6-1-5.9 6.8v1.3l5.9 6.8 0.6-1-5.6-6.4zm11.5-11.8h-1l-8.4 29.8h1zm-0.6 0h-1.1l-8.4 29.9h1.1zm10.6 18.2l-6.9 8.1 0.6 1 7.3-8.5v-1.3l-7.3-8.4-0.6 1zm-3.1 0l-5.6 6.4 0.6 1 5.9-6.8v-1.3l-5.9-6.8-0.6 1zm2.5 0l-6.9 8.1 0.6 1 7.3-8.4v-1.4l-7.3-8.4-0.6 1zm-3.2 0l-5.5 6.4 0.6 1 5.9-6.8v-1.3l-5.9-6.8-0.6 1z"/><path class="c" d="m65.1 124h9.6v-26.5h-9.6l-4 14.1-6.1-14.1h-10.1v26.5h1v-21.5l9.5 21.5h3.2l6.5-22.9zm-0.6 0h9.6v-26.5h-9.6l-4 14.1-6.1-14.1h-10.1v26.5h1v-21.5l9.4 21.5h3.3l6.5-22.8zm14.7 0h19v-1.4h-9.4v-11.9h6.7v-1.3h-6.7v-10.6h8.9v-1.4h-18.5zm-0.6 0h18.9v-1.3h-9.3v-11.9h6.7v-1.3h-6.7v-10.6h8.8v-1.4h-18.4zm37.7 0h11.2l-9-20v-0.3l5.4-6.2h-1.6l-11.5 13.3v-13.3h-9.6v26.5h9.6v-11.6l0.5-0.5zm-0.7 0h11.2l-9-20v-0.3l5.4-6.2h-1.6l-11.5 13.3v-13.3h-9.6v26.5h9.6v-11.6l0.5-0.5zm21.8-25.5h4.8v24.5h-4.8zm0.5-1.3c-5.8 0-10.6 2.3-10.6 13.6 0 11.3 4.8 13.6 10.6 13.6h3.8c5.8 0 10.6-2.3 10.6-13.6 0-11.3-4.8-13.6-10.6-13.6zm-1.1 1.3h4.8v24.6h-4.8zm0.5-1.4c-5.8 0-10.6 2.4-10.6 13.6 0 11.3 4.8 13.6 10.6 13.6h3.8c5.8 0 10.6-2.3 10.6-13.6 0-11.2-4.8-13.6-10.6-13.6zm18.8 0.4v26.5h1v-21.6l9.5 21.6h9.9v-26.5h-0.9v21.5l-9.5-21.5zm-0.6 0v26.5h0.9v-21.6l9.5 21.6h10v-26.5h-1v21.5l-9.5-21.5zm25.5 0v26.5h1v-21.6l9.5 21.6h9.9v-26.5h-0.9v21.5l-9.5-21.5zm-0.6 0v26.5h0.9v-21.6l9.5 21.6h10v-26.5h-1v21.5l-9.5-21.5zm25.6 26.5h18.9v-1.3h-9.3v-12h6.7v-1.3h-6.7v-10.6h8.8v-1.3h-18.4zm-0.7 0h19v-1.3h-9.4v-12h6.7v-1.3h-6.7v-10.6h8.9v-1.3h-18.5zm22.7-26.6v26.6h0.9v-21.6l9.5 21.6h10v-26.6h-1v21.6l-9.5-21.6zm-0.6 0v26.6h0.9v-21.6l9.5 21.6h10v-26.6h-1v21.6l-9.5-21.6z"/></svg>