<svg version="1.2" xmlns="http://www.w3.org/2000/svg" viewBox="0 0 270 135" width="180" height="90"><style>.a{fill:#1293ed}.b{fill:#ff0}</style><path fill-rule="evenodd" class="a" d="m91.8 68.1q-0.2 2-0.4 4.1-0.1 0.8-0.3 1.7-0.2 0.9-0.5 1.7-0.2 0.9-0.4 1.7-0.3 0.9-0.6 1.7c-3.5 8.8-9.6 14.6-18.9 17.5q-0.9 0.3-1.8 0.5-0.9 0.2-1.8 0.4-1 0.2-1.9 0.4-0.9 0.1-1.8 0.3c-5.3 1-11.8 0.5-17.7 0.5h-5.2l-0.1-0.2q-0.2 0.1-0.5 0.1-0.2 0.1-0.5 0.1-0.2 0.1-0.5 0.1-0.2 0-0.5 0c-1 0-2-0.2-2.9-0.7-0.9-0.4-1.7-1.1-2.3-1.9-0.6-0.9-1-1.8-1.1-2.8-0.2-1-0.1-2.1 0.3-3l-0.4-0.2v-49.2l0.3-0.3c-0.3-1-0.4-2-0.2-3 0.1-1 0.5-2 1.1-2.8 0.6-0.8 1.4-1.4 2.3-1.9 0.9-0.4 1.9-0.7 2.9-0.7q0.3 0 0.5 0.1 0.2 0 0.4 0 0.3 0 0.5 0.1 0.2 0.1 0.4 0.1l0.3-0.3h10.9c5.1 0 10.1-0.1 14.4 0.9 8.6 1.9 15.2 5.2 19.7 11.2q0.5 0.6 1 1.2 0.4 0.6 0.8 1.3 0.4 0.6 0.8 1.3 0.4 0.6 0.7 1.3 0.5 1.4 1 2.7 0.4 1.4 0.8 2.8 0.4 1.4 0.7 2.8 0.2 1.4 0.4 2.8l0.2 3.8q0.1 0.5 0.1 1 0 0.4 0 0.9 0 0.5-0.1 1 0 0.4-0.1 0.9zm-32.2-25.9c-10.3 0-8.5 11.2-8.5 11.2q0 0 0 0 0 0 0 0 0 0 0 0 0.1 0 0.1 0c-0.5 1.1-0.7 2.8 1.6 5.1 1.3 3.7 3.7 6.6 7.1 6.6 3.3 0 5.7-2.8 7-6.5 2.7-2.7 2-4.7 1.4-5.7 1.5-6.9-2.9-10.7-8.7-10.7zm18.7 31.4q-0.5-1.3-1.2-2.4-0.7-1.2-1.6-2.2-0.9-1-2-1.8-1.1-0.9-2.3-1.5l-5.1-1.9-0.7 1.6 1.4 0.6-5.2 17.3-0.7-11.6h-2.1l-0.6 11.4-5.2-17.2 1.4-0.5-0.7-1.6-5.1 1.8-0.1 0.1q-1.2 0.6-2.3 1.5-1 0.8-2 1.8-0.9 1-1.6 2.2-0.7 1.1-1.2 2.4-0.2 0.5-0.3 1-0.1 0.4-0.3 0.9-0.1 0.5-0.1 1-0.1 0.5-0.2 1 1.8 2.1 4 3.8 2.2 1.7 4.7 2.9 2.5 1.2 5.2 1.8 2.7 0.6 5.4 0.6h0.1q0.6 0 1.2-0.1h0.1q2.6-0.1 5.1-0.8 2.5-0.6 4.9-1.8 2.3-1.2 4.3-2.8 2.1-1.6 3.7-3.6 0-0.5-0.1-1-0.1-0.5-0.2-1-0.1-0.5-0.3-0.9-0.1-0.5-0.3-1zm-20.5-4.1l1 1.4h2.2l1-1.4c-0.1-0.1-0.7-1.6-0.7-1.6 0 0-2.8 0-2.9 0 0-0.1-0.6 1.5-0.6 1.6zm2.1-6.2c-3.6 0-5.9-4.9-6.3-9.8 1-0.1 3.5-3.3 3.5-3.3l-0.8 2.8c3.7-1.2 4.2-1.8 4.8-2.2q0.2-0.1 0.4-0.3 0.2-0.1 0.4-0.3 0.1-0.2 0.3-0.3 0.2-0.2 0.4-0.4 0.1 0.2 0.1 0.3 0.1 0.1 0.2 0.2 0.1 0.1 0.2 0.2 0.1 0.2 0.2 0.3c0.3 0.2 0.7-2.6 0.7-2.6q0.1 0.3 0.3 0.5 0.1 0.3 0.3 0.6 0.1 0.3 0.3 0.6 0.1 0.3 0.2 0.6 0.1 0.3 0.2 0.6 0.1 0.3 0.3 0.5 0.1 0.3 0.3 0.6 0.1 0.2 0.3 0.5c-0.1 5.3-2.5 10.9-6.3 10.9z"/><path class="b" d="m120.8 69.8v11.2h-4.8v-4.6l-2.1 4.1h-1.3l-1.9-3.6v4.1h-2.3v-11.2h3.4l2.4 4 2.3-4zm6.1 9.1h3.3l-0.5 2.1h-7.6v-11.2h7.6l0.5 2.1h-3.3v2.8h2.2l0.5 2.2h-2.7zm12.1-5.4l4.6 7.5h-5.2l-2.4-4.4v4.4h-4.8v-11.3h4.8v3.7l2.8-3.7h3.2zm14.8 1.9q0 2.4-1.7 4.1-1.7 1.7-4.1 1.7-2.4 0-4.1-1.7-1.7-1.7-1.7-4.1 0-2.3 1.7-4 1.7-1.7 4.1-1.7 2.4 0 4.1 1.7 1.7 1.7 1.7 4zm-6.7 3.4h1.8v-7h-1.8zm17.5-9.1v11.2h-2.7l-4.7-4v4h-2.7v-11.2h2.4l4.9 4.3v-4.3zm10.8 0v11.2h-2.7l-4.6-4v4h-2.8v-11.2h2.5l4.8 4.3v-4.3zm5.5 9.1h3.4l-0.5 2.1h-7.7v-11.2h7.7l0.5 2.1h-3.4v2.9h2.3l0.5 2.1h-2.8zm14.4-9.2v11.3h-2.6l-4.7-4.1v4.1h-2.7v-11.3h2.4l4.9 4.4v-4.4z"/><path class="b" d="m105.3 59.4h5.7l-0.8 3.6h-13.1v-19.2h8.2zm-0.6 0h5.7l-0.9 3.6h-13.1v-19.3h8.3zm16.2-15.6v19.2h-8.2v-19.2zm-0.6 0v19.2h-8.3v-19.2zm16.7 0v13.9q0 2.3-2.4 4-2.4 1.7-5.7 1.7-2.3 0-4.4-0.9l-0.6-4.2h4.9v-14.5zm-0.7 0v13.9q0 2.3-2.4 4-2.3 1.7-5.7 1.7-2.3 0-4.3-0.9l-0.7-4.2h4.9v-14.5zm14.2-0.1l6.8 19.3h-8.7q0-0.1-1-3h-4.4l-1.1 3h-4.4l6.9-19.3zm-6.1 12.7h1.9l-0.9-2.6zm5.4-12.7l6.8 19.2h-8.7q0-0.1-1-3h-4.4l-1.1 3h-4.4l6.9-19.2zm-6.1 12.7h1.9l-0.9-2.7zm33.1-3q0 3.9-2.8 6.8-2.8 2.8-6.8 2.8h-8.5v-19.3h8.5q3.9 0 6.8 2.9 2.8 2.8 2.8 6.8zm-10.2 6h3v-12h-3zm9.6-6.1q0 4-2.9 6.8-2.8 2.9-6.7 2.9h-8.5v-19.3h8.5q3.9 0 6.7 2.8 2.9 2.9 2.9 6.8zm-10.2 6.1h3v-12.1h-3zm20.7-15.6v19.3h-8.2v-19.3zm-0.7 0v19.3h-8.2v-19.3zm17.4 14q0 2.2-1.6 3.7-1.5 1.6-3.6 1.6h-6.8l-1.9-3.7h5.7l-4.9-7.6q-0.8-1.3-0.8-2.8 0-2.1 1.6-3.7 1.5-1.5 3.7-1.5h7.4l1.2 3.6h-5.8l5 7.6q0.8 1.2 0.8 2.8zm-0.6 0q0 2.2-1.6 3.7-1.5 1.6-3.7 1.6h-6.7l-1.9-3.7h5.7l-4.9-7.6q-0.8-1.3-0.8-2.8 0-2.1 1.5-3.7 1.6-1.5 3.7-1.5h7.4l1.2 3.6h-5.7l4.9 7.6q0.9 1.2 0.9 2.8zm16.3 0q0 2.2-1.6 3.7-1.5 1.6-3.6 1.6h-6.8l-1.9-3.7h5.7l-4.9-7.6q-0.8-1.3-0.8-2.8 0-2.1 1.6-3.7 1.5-1.5 3.7-1.5h7.4l1.2 3.6h-5.8l5 7.6q0.8 1.2 0.8 2.8zm-0.7 0q0 2.2-1.5 3.7-1.5 1.6-3.7 1.6h-6.7l-1.9-3.7h5.7l-4.9-7.6q-0.8-1.3-0.8-2.8 0-2.1 1.5-3.7 1.6-1.5 3.7-1.5h7.4l1.2 3.6h-5.7l4.9 7.6q0.8 1.2 0.8 2.8z"/></svg>