<svg id="logo_" data-name="logo " xmlns="http://www.w3.org/2000/svg" width="270" height="135" viewBox="0 0 270 135">
  <metadata><?xpacket begin="﻿" id="W5M0MpCehiHzreSzNTczkc9d"?>
<x:xmpmeta xmlns:x="adobe:ns:meta/" x:xmptk="Adobe XMP Core 5.6-c142 79.160924, 2017/07/13-01:06:39        ">
   <rdf:RDF xmlns:rdf="http://www.w3.org/1999/02/22-rdf-syntax-ns#">
      <rdf:Description rdf:about=""/>
   </rdf:RDF>
</x:xmpmeta>
                                                                                                    
                                                                                                    
                                                                                                    
                                                                                                    
                                                                                                    
                                                                                                    
                                                                                                    
                                                                                                    
                                                                                                    
                                                                                                    
                                                                                                    
                                                                                                    
                                                                                                    
                                                                                                    
                                                                                                    
                                                                                                    
                                                                                                    
                                                                                                    
                                                                                                    
                                                                                                    
                           
<?xpacket end="w"?></metadata>
<defs>
    <style>
      .cls-1 {
        fill: #febf34;
        fill-rule: evenodd;
      }
    </style>
  </defs>
  <path id="polygon" class="cls-1" d="M120,89.258V46.4a22.978,22.978,0,0,0-11.469-19.893L71.466,5.086a22.911,22.911,0,0,0-22.937,0L11.47,26.512A22.978,22.978,0,0,0,0,46.4V89.258A22.976,22.976,0,0,0,11.47,109.151l37.059,21.426a22.905,22.905,0,0,0,22.937,0l37.06-21.426A22.976,22.976,0,0,0,120,89.258Zm-6-2.425V48.14a20.761,20.761,0,0,0-10.322-17.962L70.32,10.832a20.562,20.562,0,0,0-20.644,0L16.323,30.178A20.76,20.76,0,0,0,6,48.14V86.833A20.758,20.758,0,0,0,16.323,104.8L49.676,124.14a20.555,20.555,0,0,0,20.644,0L103.673,104.8A20.759,20.759,0,0,0,114,86.833Z"/>
  <path id="user" class="cls-1" d="M91.816,68.118q-0.2,2.028-.395,4.056a40.452,40.452,0,0,1-1.842,6.833c-3.46,8.79-9.586,14.556-18.857,17.5a65.017,65.017,0,0,1-7.367,1.585c-5.212.992-11.738,0.527-17.673,0.527H40.491l-0.077-.237a6.314,6.314,0,0,1-1.985.346,6.36,6.36,0,0,1-6.07-8.466L32,90.143V40.883l0.315-.318a6.352,6.352,0,0,1,6.113-8.329,6.327,6.327,0,0,1,1.787.283l0.276-.28H51.427c5.107,0,10.111-.1,14.34.837,8.656,1.919,15.255,5.179,19.778,11.2a26.413,26.413,0,0,1,3.245,5.158,44.423,44.423,0,0,1,2.938,11.063L91.9,64.327A13.581,13.581,0,0,1,91.816,68.118Zm-32.2-25.966c-10.288,0-8.493,11.255-8.493,11.255a0.174,0.174,0,0,0,.035,0c-0.471,1.059-.61,2.842,1.622,5.114,1.274,3.719,3.673,6.549,7.088,6.549,3.289,0,5.723-2.787,7.04-6.5,2.657-2.676,2.03-4.673,1.416-5.629C69.769,46.041,65.358,42.151,59.618,42.151Zm-1.832,27.3,0.99,1.406H60.96l0.99-1.406c-0.007-.025-0.619-1.6-0.619-1.6-0.072.013-2.853,0.013-2.926,0C58.406,67.845,57.783,69.444,57.786,69.45Zm20.529,4.164a15.36,15.36,0,0,0-7.071-7.949l-5.176-1.9-0.684,1.667,1.444,0.531L61.561,83.313,60.9,71.659h-2.05L58.189,83.1,52.979,65.934l1.385-.506-0.692-1.666-5.113,1.879-0.065.027a15.365,15.365,0,0,0-7.071,7.949,15,15,0,0,0-.9,3.845,25.021,25.021,0,0,0,19.327,9.116h0.035c0.421,0,.838-0.012,1.253-0.033H61.17a25.026,25.026,0,0,0,18.045-9.087A14.972,14.972,0,0,0,78.315,73.614ZM59.87,63.27c-3.55,0-5.875-4.841-6.283-9.82,0.973-.058,3.491-3.284,3.491-3.284L56.327,52.96c3.673-1.118,4.166-1.733,4.744-2.153a13.358,13.358,0,0,0,1.52-1.279,4.432,4.432,0,0,0,.7.933c0.272,0.285.675-2.585,0.675-2.585a16.945,16.945,0,0,1,1.157,2.309,5.935,5.935,0,0,0,1.087,2.165C66.081,57.69,63.682,63.27,59.87,63.27Z"/>
  <path id="David_Smith" data-name="David Smith" class="cls-1" d="M153.182,36.808H141.1V65.057h11.8a17.166,17.166,0,0,0,7.94-1.773,12.9,12.9,0,0,0,5.36-5,14.255,14.255,0,0,0,1.9-7.375,14.263,14.263,0,0,0-1.88-7.355,12.933,12.933,0,0,0-5.26-4.977,16.508,16.508,0,0,0-7.78-1.773h0Zm0.2,22.285h-4.96V42.813h4.6a7.5,7.5,0,0,1,3.92,1.028,7.2,7.2,0,0,1,2.7,2.881,9.009,9.009,0,0,1,.98,4.272,9.4,9.4,0,0,1-.92,4.231,6.833,6.833,0,0,1-2.56,2.861,7.038,7.038,0,0,1-3.76,1.008h0Zm46,5.964-11.76-28.249H180.1l-12.04,28.249h7.52l1.96-5h12.12l1.92,5h7.8Zm-15.72-20.713,3.84,10.075h-7.76Zm24.12,20.713h7.6l10.96-28.249h-7.52l-7.04,20.431-7-20.431H196.9Zm21.2,0h7.32V36.808h-7.32V65.057Zm24.839-28.249h-12.08V65.057h11.8a17.166,17.166,0,0,0,7.94-1.773,12.9,12.9,0,0,0,5.36-5,14.255,14.255,0,0,0,1.9-7.375,14.263,14.263,0,0,0-1.88-7.355,12.933,12.933,0,0,0-5.26-4.977,16.508,16.508,0,0,0-7.78-1.773h0Zm0.2,22.285h-4.96V42.813h4.6a7.5,7.5,0,0,1,3.92,1.028,7.2,7.2,0,0,1,2.7,2.881,9.009,9.009,0,0,1,.98,4.272,9.4,9.4,0,0,1-.92,4.231,6.833,6.833,0,0,1-2.56,2.861,7.038,7.038,0,0,1-3.76,1.008h0ZM155.914,75.172l0.684-1.378a12.52,12.52,0,0,0-3.366-1.505,13.635,13.635,0,0,0-3.834-.562,11.8,11.8,0,0,0-4.338.743,6.483,6.483,0,0,0-2.916,2.122,5.2,5.2,0,0,0-1.026,3.192,5.719,5.719,0,0,0,1.062,3.591,6.877,6.877,0,0,0,2.592,2.085,34,34,0,0,0,4.122,1.505,31.887,31.887,0,0,1,3.69,1.306,6.409,6.409,0,0,1,2.322,1.723,4.313,4.313,0,0,1,.936,2.883,4.258,4.258,0,0,1-1.908,3.645,8.777,8.777,0,0,1-5.184,1.36,11.582,11.582,0,0,1-4.464-.925,10.5,10.5,0,0,1-3.744-2.557l-0.792,1.342a13.115,13.115,0,0,0,8.964,3.7,12.029,12.029,0,0,0,4.608-.816,6.875,6.875,0,0,0,3.06-2.321,5.789,5.789,0,0,0,1.08-3.464,5.87,5.87,0,0,0-1.08-3.663,6.955,6.955,0,0,0-2.664-2.14,32.568,32.568,0,0,0-4.14-1.487,36.164,36.164,0,0,1-3.654-1.324,6.218,6.218,0,0,1-2.268-1.687,4.237,4.237,0,0,1-.918-2.829,3.669,3.669,0,0,1,1.8-3.192,8.523,8.523,0,0,1,4.788-1.2,13.369,13.369,0,0,1,3.456.471,10.573,10.573,0,0,1,3.132,1.378h0ZM167.506,97.3h1.44V74.048L179.71,94.54h0.648l10.728-20.492L191.122,97.3h1.4V71.944h-2.052l-10.4,19.984L169.594,71.944h-2.088V97.3Zm36.9,0h1.512V71.944h-1.512V97.3Zm9.5-23.865h8.5V97.3h1.512V73.432h8.5V71.944h-18.5v1.487Zm26.5,23.865h1.512V85.328h17.028V97.3h1.512V71.944h-1.512v11.9H241.918v-11.9h-1.512V97.3Z"/>
</svg>
