<svg xmlns="http://www.w3.org/2000/svg" width="71" height="4" viewBox="0 0 71 4">
  <metadata><?xpacket begin="﻿" id="W5M0MpCehiHzreSzNTczkc9d"?>
<x:xmpmeta xmlns:x="adobe:ns:meta/" x:xmptk="Adobe XMP Core 5.6-c142 79.160924, 2017/07/13-01:06:39        ">
   <rdf:RDF xmlns:rdf="http://www.w3.org/1999/02/22-rdf-syntax-ns#">
      <rdf:Description rdf:about=""/>
   </rdf:RDF>
</x:xmpmeta>
                                                                                                    
                                                                                                    
                                                                                                    
                                                                                                    
                                                                                                    
                                                                                                    
                                                                                                    
                                                                                                    
                                                                                                    
                                                                                                    
                                                                                                    
                                                                                                    
                                                                                                    
                                                                                                    
                                                                                                    
                                                                                                    
                                                                                                    
                                                                                                    
                                                                                                    
                                                                                                    
                           
<?xpacket end="w"?></metadata>
<defs>
    <style>
      .cls-1 {
        fill-rule: evenodd;
      }
    </style>
  </defs>
  <path id="wave" class="cls-1" d="M64.062,2.67c-2.665-1.828-4.676-1.759-7.241,0a6.063,6.063,0,0,1-7.542,0c-2.757-1.89-4.576-1.689-7.04,0-2.614,1.794-4.726,1.725-7.241,0l0.853-1.04c2.069,1.419,3.466,1.419,5.534,0,3.106-2.13,5.64-2.13,8.747,0a4.571,4.571,0,0,0,5.836,0c3.136-2.151,5.812-2.151,8.947,0,2.1,1.443,3.131,1.443,5.232,0L71,2.67C68.388,4.463,66.678,4.463,64.062,2.67Zm-34.147-.3c-3.136,2.151-5.811,2.151-8.947,0a4.569,4.569,0,0,0-5.835,0c-3.107,2.13-5.641,2.13-8.747,0-2.068-1.419-3.465-1.419-5.534,0L0,1.326c2.514-1.724,4.627-1.793,7.241,0,2.464,1.691,4.283,1.892,7.04,0a6.066,6.066,0,0,1,7.542,0c2.564,1.76,4.576,1.828,7.241,0,2.616-1.793,4.325-1.793,6.939,0L35.148,2.368C33.046,0.925,32.019.925,29.915,2.368Z"/>
</svg>
